<svg width="72" height="70" viewBox="0 0 72 70" fill="none" xmlns="http://www.w3.org/2000/svg">
<path d="M40.1664 5.80713C34.5973 5.80713 29.9007 9.70539 29.9007 14.6938C29.9007 17.2136 31.1 19.4544 33.0038 21.0558L34.1953 18.7767C33.0877 17.6553 32.4319 16.2246 32.4319 14.6938C32.4319 11.2253 35.7942 8.26807 40.1662 8.26807C44.5383 8.26807 47.9006 11.2253 47.9006 14.6938C47.9006 17.0732 46.3181 19.2119 43.913 20.3204L42.8609 23.2675C43.1266 23.2049 43.3899 23.1329 43.6502 23.0515L44.9381 25.2407C43.486 26.2337 42.0806 27.4646 40.5739 28.9967L52.0137 53.5229C59.0823 53.8398 65.9024 50.1959 69.4166 44.2247L54.2531 21.6884C51.4172 22.2389 49.1357 22.9262 47.0988 23.9576L45.9611 22.0239C48.641 20.4359 50.432 17.7733 50.432 14.694C50.432 9.70553 45.7354 5.80727 40.1664 5.80727V5.80713ZM22.9165 6.6202C22.5424 6.6243 22.1495 6.68445 21.7701 6.80449C20.9024 7.07848 20.1684 7.64313 19.8492 8.25234L19.8087 8.33027L10.6815 20.949C10.3813 21.5577 10.3466 22.4457 10.6173 23.2691C10.8943 24.1109 11.4673 24.8147 12.0519 25.1042L32.2572 35.1065C32.8298 35.3902 33.7464 35.4353 34.5983 35.1649C35.4343 34.8996 36.1446 34.3603 36.4831 33.7304L40.0494 23.5777L40.0705 23.5782L40.9602 21.0859C40.9481 21.087 40.9356 21.0872 40.9236 21.0883L41.6134 19.1244L41.6542 19.0467C41.9734 18.4375 42.0114 17.5264 41.7315 16.6839C41.4517 15.8415 40.8737 15.1315 40.2642 14.8297L35.7533 12.5967C34.8332 13.7148 34.5509 15.313 35.7046 16.8172L36.0013 17.3001L37.4481 18.0384L36.2871 20.2552L36.2666 20.2456L35.125 22.429L35.1439 22.4379L34.2576 24.1299L19.9715 17.0577L22.588 12.0623L23.162 10.9658L27.5008 13.1139C27.7197 11.7727 28.193 10.4824 28.9542 9.23057L24.2019 6.87832C23.8484 6.70332 23.3974 6.61514 22.9165 6.6202ZM53.5626 24.5823L56.9491 30.5733L46.8432 35.9723L44.0662 31.06L43.4567 29.9817L53.5626 24.5823ZM52.5633 27.9243L46.8944 30.9531L47.8425 32.6307L53.5114 29.6018L52.5633 27.9243ZM16.1015 29.8706L13.1667 35.4751L22.9412 40.3138L25.8765 34.7095L16.1015 29.8706ZM57.8972 32.2509L61.2835 38.2415L51.1777 43.6405L48.4011 38.7282L47.7916 37.6499L57.8975 32.2506L57.8972 32.2509ZM56.8979 35.5925L51.2288 38.6214L52.1772 40.2989L57.8462 37.2701L56.8979 35.5925ZM14.0231 38.6605H14.0228L2.5835 60.5021L3.44454 63.0766L14.3098 42.3313L16.5651 43.448L5.70017 64.193L8.84665 63.1984L10.6703 62.6218L9.68787 59.6747L12.7107 58.7218L11.7269 55.7812L14.7532 54.8245L13.998 52.5681L19.7876 41.5141L14.0231 38.6605Z" fill="black"/>
</svg>
